<svg width="117" height="56" viewBox="0 0 117 56" fill="none" xmlns="http://www.w3.org/2000/svg">
<g filter="url(#filter0_d_1_2)">
<path d="M5.625 33.6875V32.1562C5.625 30.7812 6.25 29.6458 7.5 28.75L25.2812 16.1562C26.0104 15.6771 26.6458 15.5833 27.1875 15.875C27.75 16.1458 28.0312 16.6667 28.0312 17.4375V22.8125C28.0312 24.3542 27.1146 25.7604 25.2812 27.0312L16.9688 32.9062L25.2812 38.8125C27.1146 40.0833 28.0312 41.4896 28.0312 43.0312V48.4062C28.0312 49.1771 27.75 49.6979 27.1875 49.9688C26.6458 50.2396 26.0104 50.1458 25.2812 49.6875L7.5 37.0625C6.25 36.1875 5.625 35.0625 5.625 33.6875ZM54.5938 50C53.5729 50 53.0625 49.5104 53.0625 48.5312C53.0625 48.0521 53.2083 47.5625 53.5 47.0625L73.8125 8.15625C74.7917 6.17708 76.6042 5.1875 79.25 5.1875H84.5C85.5208 5.1875 86.0312 5.6875 86.0312 6.6875C86.0312 7.14583 85.875 7.63542 85.5625 8.15625L65.2812 47.0625C64.3021 49.0208 62.4896 50 59.8438 50H54.5938ZM88.625 48.4062V43.0312C88.625 41.4896 89.5417 40.0833 91.375 38.8125L99.6875 32.9062L91.375 27.0312C89.5417 25.7604 88.625 24.3542 88.625 22.8125V17.4375C88.625 16.6667 88.9062 16.1354 89.4688 15.8438C89.6771 15.7396 89.9271 15.6875 90.2188 15.6875C90.5312 15.6875 90.9167 15.8438 91.375 16.1562L109.156 28.75C110.385 29.6458 111.01 30.7812 111.031 32.1562V33.6875C111.031 35.0625 110.406 36.1875 109.156 37.0625L91.375 49.6875C90.9167 49.9792 90.5312 50.125 90.2188 50.125C89.9062 50.125 89.6562 50.0729 89.4688 49.9688C88.9062 49.6979 88.625 49.1771 88.625 48.4062Z" fill="#8C8CFF"/>
</g>
<defs>
<filter id="filter0_d_1_2" x="0.625" y="0.1875" width="115.406" height="55.1875" filterUnits="userSpaceOnUse" color-interpolation-filters="sRGB">
<feFlood flood-opacity="0" result="BackgroundImageFix"/>
<feColorMatrix in="SourceAlpha" type="matrix" values="0 0 0 0 0 0 0 0 0 0 0 0 0 0 0 0 0 0 127 0" result="hardAlpha"/>
<feOffset/>
<feGaussianBlur stdDeviation="2.5"/>
<feComposite in2="hardAlpha" operator="out"/>
<feColorMatrix type="matrix" values="0 0 0 0 0 0 0 0 0 0 0 0 0 0 0 0 0 0 0.25 0"/>
<feBlend mode="normal" in2="BackgroundImageFix" result="effect1_dropShadow_1_2"/>
<feBlend mode="normal" in="SourceGraphic" in2="effect1_dropShadow_1_2" result="shape"/>
</filter>
</defs>
</svg>
